<?xml version="1.0" standalone="no"?>
<!DOCTYPE svg PUBLIC "-//W3C//DTD SVG 20010904//EN"
 "http://www.w3.org/TR/2001/REC-SVG-20010904/DTD/svg10.dtd">
<svg version="1.0" xmlns="http://www.w3.org/2000/svg"
 width="512.000000pt" height="512.000000pt" viewBox="0 0 512.000000 512.000000"
 preserveAspectRatio="xMidYMid meet">
<metadata>
Created by potrace 1.16, written by Peter Selinger 2001-2019
</metadata>
<g transform="translate(0.000000,512.000000) scale(0.100000,-0.100000)"
fill="#000000" stroke="none">
<path d="M203 4958 c-174 -172 -196 -198 -191 -231 3 -19 32 5 192 163 103
102 192 193 197 203 8 14 5 17 -17 17 -21 0 -60 -33 -181 -152z"/>
<path d="M303 4858 c-140 -139 -264 -265 -275 -281 -10 -15 -18 -37 -16 -50 3
-18 49 23 292 263 158 157 292 293 297 303 8 14 5 17 -17 17 -22 0 -75 -47
-281 -252z"/>
<path d="M402 4758 c-194 -194 -362 -365 -373 -381 -11 -15 -19 -37 -17 -50 4
-18 67 40 392 363 213 212 392 393 397 403 8 14 5 17 -18 17 -22 0 -89 -62
-381 -352z"/>
<path d="M502 4658 c-249 -249 -462 -465 -473 -481 -11 -15 -19 -37 -17 -50 4
-18 84 57 492 463 268 267 492 493 497 503 8 14 5 17 -18 17 -22 0 -104 -76
-481 -452z"/>
<path d="M602 4558 c-304 -304 -562 -565 -573 -581 -11 -15 -19 -37 -17 -50 4
-18 101 75 592 563 323 322 592 593 597 603 8 14 5 17 -18 17 -23 0 -118 -91
-581 -552z"/>
<path d="M702 4458 c-359 -359 -662 -665 -673 -681 -11 -15 -19 -37 -17 -50 4
-18 118 92 692 663 378 377 692 693 697 703 8 14 5 17 -18 17 -23 0 -133 -106
-681 -652z"/>
<path d="M802 4358 c-414 -414 -762 -765 -773 -781 -11 -15 -19 -37 -17 -50 4
-18 136 109 792 763 433 432 792 793 797 803 8 14 5 17 -18 17 -23 0 -148
-120 -781 -752z"/>
<path d="M902 4258 c-469 -469 -862 -865 -873 -881 -11 -15 -19 -37 -17 -50 4
-18 153 126 892 863 488 487 892 893 897 903 8 14 5 17 -18 17 -23 0 -162
-135 -881 -852z"/>
<path d="M1002 4158 c-524 -524 -962 -965 -973 -981 -11 -15 -19 -37 -17 -50
4 -18 170 144 992 963 543 542 992 993 997 1003 8 14 5 17 -18 17 -23 0 -177
-149 -981 -952z"/>
<path d="M1102 4058 c-579 -579 -1062 -1065 -1073 -1081 -11 -15 -19 -37 -17
-50 4 -18 188 161 1092 1063 598 597 1092 1093 1097 1103 8 14 5 17 -18 17
-23 0 -191 -164 -1081 -1052z"/>
<path d="M1906 4663 c-316 -314 -476 -466 -536 -508 -47 -33 -143 -118 -215
-190 -71 -71 -157 -168 -190 -215 -42 -60 -194 -220 -507 -536 -368 -370 -448
-455 -448 -477 0 -15 3 -27 7 -27 4 0 180 172 391 383 l384 382 -35 -70 c-19
-38 -40 -88 -47 -110 -10 -32 -79 -107 -356 -386 -280 -281 -344 -350 -344
-372 0 -15 3 -27 7 -27 4 0 149 141 321 313 173 171 312 303 309 292 -3 -11
-13 -49 -22 -85 l-16 -65 -300 -301 c-243 -244 -299 -305 -299 -327 0 -15 3
-27 7 -27 4 0 135 127 291 283 l284 282 -7 -70 -7 -70 -284 -286 c-230 -231
-284 -291 -284 -312 0 -15 3 -27 7 -27 4 0 130 123 280 272 l273 273 0 -65 0
-64 -280 -281 c-227 -228 -280 -287 -280 -308 0 -15 3 -27 7 -27 4 0 129 122
279 271 l271 271 7 -32 c15 -77 22 -68 -279 -370 -231 -232 -285 -292 -285
-313 0 -15 3 -27 7 -27 4 0 134 127 290 282 156 156 283 278 283 273 1 -6 5
-30 10 -55 l9 -45 -300 -301 c-243 -244 -299 -305 -299 -327 0 -15 3 -27 7
-27 4 0 141 134 305 297 195 194 299 292 302 282 3 -8 9 -30 14 -49 l9 -35
-318 -321 c-262 -263 -319 -325 -319 -348 0 -22 3 -25 18 -17 9 5 156 150 327
320 l310 311 16 -47 17 -48 -344 -346 c-283 -284 -344 -350 -344 -372 0 -23 3
-26 18 -18 9 5 168 161 352 345 l335 336 22 -43 22 -42 -375 -376 c-309 -310
-374 -380 -374 -402 0 -23 3 -26 18 -18 9 5 181 174 382 375 201 201 368 366
371 366 3 0 14 -18 24 -40 l18 -41 -406 -408 c-335 -335 -407 -412 -407 -434
0 -15 3 -27 7 -27 4 0 193 185 420 412 227 227 414 410 416 408 2 -3 14 -20
27 -38 l23 -34 -447 -447 c-371 -371 -446 -452 -446 -474 0 -23 3 -26 18 -18
9 5 215 208 457 450 242 243 443 441 447 441 3 0 16 -16 29 -36 l22 -36 -487
-487 c-405 -406 -486 -491 -486 -514 0 -23 3 -26 18 -18 9 5 235 228 502 495
465 466 485 485 503 468 52 -47 78 -15 -492 -586 -440 -441 -531 -536 -531
-559 0 -15 3 -27 7 -27 4 0 252 244 550 542 l543 543 32 -33 33 -32 -558 -558
c-306 -306 -557 -561 -557 -565 0 -4 12 -7 27 -7 23 0 121 93 574 546 l547
547 37 -28 36 -28 -510 -511 c-281 -281 -511 -515 -511 -519 0 -4 12 -7 27 -7
22 0 114 87 529 501 l502 502 37 -28 36 -28 -465 -466 c-256 -257 -466 -470
-466 -474 0 -4 12 -7 27 -7 22 0 108 80 488 459 l460 459 38 -26 38 -25 -425
-427 c-234 -234 -426 -429 -426 -433 0 -4 12 -7 27 -7 22 0 101 74 448 420
l421 421 42 -24 41 -23 -380 -380 c-209 -208 -385 -387 -390 -397 -8 -14 -5
-17 18 -17 22 0 94 67 414 386 l386 386 43 -22 43 -22 -357 -357 c-196 -196
-356 -360 -356 -364 0 -4 12 -7 27 -7 22 0 91 64 383 355 l355 355 47 -18 47
-18 -320 -319 c-176 -176 -325 -328 -330 -337 -8 -15 -5 -18 18 -18 22 0 86
59 357 328 l331 329 49 -14 49 -15 -307 -307 c-168 -169 -306 -310 -306 -314
0 -4 12 -7 27 -7 22 0 84 57 334 306 l306 306 58 -7 57 -8 -291 -291 c-160
-161 -291 -295 -291 -299 0 -4 12 -7 27 -7 22 0 82 55 320 292 l293 292 52 -3
c29 -1 55 -5 57 -7 3 -3 -120 -130 -272 -282 -152 -153 -277 -281 -277 -285 0
-4 12 -7 27 -7 21 0 81 54 313 285 l286 285 64 0 65 0 -278 -278 c-152 -153
-277 -281 -277 -285 0 -4 12 -7 27 -7 21 0 81 54 313 285 254 253 291 286 323
290 20 3 54 7 74 10 35 4 23 -10 -250 -283 -158 -158 -287 -291 -287 -295 0
-4 12 -7 27 -7 22 0 83 56 327 299 l301 300 84 19 83 20 -311 -312 c-171 -171
-311 -315 -311 -319 0 -4 12 -7 27 -7 22 0 88 61 362 334 l336 334 105 41 104
40 -367 -367 c-202 -202 -367 -371 -367 -375 0 -4 12 -7 27 -7 22 0 103 76
452 422 296 293 443 433 481 455 208 119 463 370 600 589 47 74 118 152 478
514 346 349 422 431 422 453 0 15 -3 27 -7 27 -4 0 -173 -165 -375 -367 l-367
-367 40 104 41 105 334 336 c273 274 334 340 334 362 0 15 -3 27 -7 27 -4 0
-148 -140 -319 -311 l-312 -311 20 83 19 84 300 301 c243 244 299 305 299 327
0 15 -3 27 -7 27 -4 0 -137 -129 -295 -287 -273 -273 -287 -285 -283 -250 3
20 7 54 10 74 4 32 37 69 290 323 231 232 285 292 285 313 0 15 -3 27 -7 27
-4 0 -132 -125 -285 -277 l-278 -278 0 65 0 64 285 286 c231 232 285 292 285
313 0 15 -3 27 -7 27 -4 0 -132 -125 -285 -277 -152 -152 -279 -275 -282 -272
-2 2 -6 28 -7 57 l-3 52 292 293 c237 238 292 298 292 320 0 15 -3 27 -7 27
-4 0 -138 -131 -299 -291 l-291 -291 -8 57 -7 58 306 306 c249 250 306 312
306 334 0 15 -3 27 -7 27 -4 0 -145 -138 -314 -306 l-307 -307 -15 49 -14 49
329 331 c269 271 328 335 328 357 0 23 -3 26 -17 18 -10 -5 -162 -154 -338
-330 l-319 -320 -18 47 -18 47 355 355 c291 292 355 361 355 383 0 15 -3 27
-7 27 -4 0 -168 -160 -364 -356 l-357 -357 -22 43 -22 43 386 386 c319 320
386 392 386 414 0 23 -3 26 -17 18 -10 -5 -189 -181 -397 -390 l-380 -380 -23
41 -24 42 421 421 c346 347 420 426 420 448 0 15 -3 27 -7 27 -4 0 -199 -192
-433 -426 l-427 -425 -25 38 -26 38 459 460 c379 380 459 466 459 488 0 15 -3
27 -7 27 -4 0 -217 -210 -474 -466 l-466 -465 -28 36 -28 37 502 502 c414 415
501 507 501 529 0 15 -3 27 -7 27 -4 0 -238 -230 -519 -511 l-511 -510 -28 36
-28 37 547 547 c453 453 546 551 546 574 0 15 -3 27 -7 27 -4 0 -259 -251
-565 -557 l-558 -558 -32 33 -33 32 543 543 c298 298 542 546 542 550 0 4 -12
7 -27 7 -23 0 -118 -91 -559 -531 -571 -570 -539 -544 -586 -492 -17 18 2 38
468 503 267 267 490 493 495 503 8 14 5 17 -18 17 -23 0 -108 -81 -514 -486
l-487 -487 -36 22 c-20 13 -36 26 -36 29 0 4 198 205 441 447 242 242 445 448
450 458 8 14 5 17 -18 17 -22 0 -103 -75 -474 -446 l-447 -447 -34 23 c-18 13
-35 25 -38 27 -2 2 181 189 408 416 227 227 412 416 412 420 0 4 -12 7 -27 7
-22 0 -99 -72 -434 -407 l-408 -406 -41 18 c-22 10 -40 21 -40 24 0 3 165 170
366 371 201 201 370 373 375 383 8 14 5 17 -18 17 -22 0 -92 -65 -402 -374
l-376 -375 -42 22 -43 22 336 335 c184 184 340 343 345 353 8 14 5 17 -18 17
-22 0 -88 -61 -372 -344 l-346 -344 -48 17 -47 16 311 310 c170 171 315 318
320 328 8 14 5 17 -17 17 -23 0 -85 -57 -348 -319 l-321 -318 -35 9 c-19 5
-41 11 -49 14 -10 3 88 107 282 302 163 164 297 301 297 305 0 4 -12 7 -27 7
-22 0 -83 -56 -327 -299 l-301 -300 -45 9 c-25 5 -49 9 -55 10 -5 0 117 127
273 283 155 156 282 286 282 290 0 4 -12 7 -27 7 -21 0 -81 -54 -313 -285
-302 -301 -293 -294 -370 -279 l-32 7 271 271 c149 150 271 275 271 279 0 4
-12 7 -27 7 -21 0 -80 -53 -308 -280 l-281 -280 -64 0 -65 0 273 273 c149 150
272 276 272 280 0 4 -12 7 -27 7 -21 0 -81 -54 -312 -284 l-286 -284 -70 -7
-70 -7 283 284 c155 156 282 287 282 291 0 4 -12 7 -27 7 -22 0 -83 -56 -327
-299 l-301 -300 -65 -16 c-36 -9 -74 -19 -85 -22 -11 -3 121 136 293 309 171
172 312 317 312 321 0 4 -12 7 -27 7 -22 0 -91 -64 -372 -344 -279 -277 -354
-346 -386 -356 -22 -7 -71 -28 -110 -47 l-70 -35 383 384 c210 211 382 387
382 391 0 4 -12 7 -27 7 -22 0 -107 -80 -477 -447z m784 -1016 c0 -1 -108
-110 -241 -242 -265 -265 -247 -256 -179 -85 17 45 46 80 158 193 l137 137 62
0 c35 0 63 -1 63 -3z m-200 -402 c-223 -223 -406 -405 -406 -405 -1 0 16 46
38 103 l39 102 302 303 302 302 65 0 65 0 -405 -405z m520 396 c0 -5 -13 -38
-29 -73 -26 -57 -73 -107 -525 -558 -273 -272 -496 -492 -496 -488 0 5 16 50
36 100 l37 93 466 468 c339 340 472 467 488 467 13 0 23 -4 23 -9z m-151 -367
l-41 -99 -441 -442 c-407 -408 -445 -443 -476 -443 -28 0 -32 3 -26 18 4 9 12
31 17 47 7 19 193 213 506 527 273 274 497 496 499 494 2 -1 -15 -47 -38 -102z
m-118 -281 c-67 -166 -48 -142 -335 -430 l-271 -273 -65 0 -65 0 375 375 c206
206 376 375 377 375 2 0 -6 -21 -16 -47z m-186 -483 l-220 -220 -65 0 -65 0
220 220 220 220 65 0 65 0 -220 -220z m200 0 l-220 -220 -65 0 -65 0 220 220
220 220 65 0 65 0 -220 -220z m75 -125 c-189 -189 -345 -343 -346 -342 -2 1 6
38 16 81 l18 79 263 263 264 264 65 0 65 0 -345 -345z m291 153 l-129 -193
-286 -285 c-157 -157 -286 -280 -286 -275 0 6 9 44 20 84 l19 75 393 393 c216
216 394 393 396 393 1 0 -56 -87 -127 -192z m-410 -610 c-109 -163 -147 -210
-241 -303 -84 -83 -111 -104 -107 -85 4 14 11 50 18 80 11 54 15 59 232 278
122 122 223 222 225 222 1 0 -56 -87 -127 -192z"/>
<path d="M3996 1150 c-614 -613 -1122 -1123 -1127 -1132 -8 -15 -5 -18 18 -18
23 0 196 168 1111 1082 596 596 1092 1095 1103 1111 11 15 19 37 17 50 -4 18
-193 -166 -1122 -1093z"/>
<path d="M4096 1050 c-559 -558 -1022 -1023 -1027 -1033 -8 -14 -5 -17 18 -17
23 0 181 153 1011 983 541 540 992 994 1003 1010 11 15 19 37 17 50 -4 18
-175 -149 -1022 -993z"/>
<path d="M4196 950 c-504 -503 -922 -923 -927 -932 -8 -15 -5 -18 18 -18 23 0
167 139 911 882 486 486 892 895 903 911 11 15 19 37 17 50 -4 18 -158 -132
-922 -893z"/>
<path d="M4296 850 c-449 -448 -822 -823 -827 -832 -8 -15 -5 -18 18 -18 23 0
152 124 811 783 431 430 792 794 803 810 11 15 19 37 17 50 -4 18 -141 -114
-822 -793z"/>
<path d="M4396 750 c-394 -393 -722 -723 -727 -732 -8 -15 -5 -18 18 -18 23 0
137 110 711 683 376 375 692 694 703 710 11 15 19 37 17 50 -4 18 -124 -97
-722 -693z"/>
<path d="M4496 650 c-339 -338 -622 -623 -627 -632 -8 -15 -5 -18 18 -18 23 0
123 95 611 583 321 320 592 594 603 610 11 15 19 37 17 50 -4 18 -106 -80
-622 -593z"/>
<path d="M4596 550 c-284 -283 -522 -523 -527 -533 -8 -14 -5 -17 18 -17 23 0
108 81 511 483 266 265 492 494 503 510 11 15 19 37 17 50 -4 18 -89 -62 -522
-493z"/>
<path d="M4696 450 c-229 -228 -422 -423 -427 -432 -8 -15 -5 -18 18 -18 22 0
93 66 411 383 211 210 392 394 403 410 11 15 19 37 17 50 -4 18 -72 -45 -422
-393z"/>
<path d="M4796 350 c-174 -173 -322 -323 -327 -332 -8 -15 -5 -18 17 -18 23 0
80 52 312 282 156 156 293 295 303 311 11 15 19 37 17 50 -4 18 -54 -28 -322
-293z"/>
<path d="M4896 250 c-119 -118 -222 -223 -227 -232 -8 -15 -5 -18 17 -18 21 0
65 37 211 183 205 202 226 227 221 260 -3 19 -37 -11 -222 -193z"/>
<path d="M4996 150 c-136 -133 -149 -150 -111 -150 18 0 49 23 111 82 102 98
127 130 122 161 -3 19 -19 7 -122 -93z"/>
</g>
</svg>
